<svg xmlns="http://www.w3.org/2000/svg" viewBox="0 0 1335 297"><path fill="#ed0007" d="M571 144s35 8 35 47c0 33-30 55-61 55H445V50h92c35 0 61 18 61 54 0 17-11 34-27 40m-78-53v36h36q17-1 18-18v-2a18 18 0 0 0-18-16zm36 114c14 0 25-5 25-20q1-18-26-19h-35v39zM712 45c57 0 90 45 90 103 0 57-33 102-90 102s-90-45-90-102c0-58 33-103 90-103m0 158c28 0 42-24 42-55s-14-56-42-56-42 25-42 56c0 30 14 55 42 55m194-76c28 6 62 14 62 59 0 43-39 64-76 64-42 0-64-16-81-37l31-31q20 26 49 26 25-1 27-20c0-12-10-16-35-21l-7-2c-31-6-56-24-56-59 0-38 31-61 73-61 35 0 57 15 71 30l-30 31a55 55 0 0 0-41-19c-11 0-23 6-23 19 0 12 13 16 30 19zm171 76c19 0 28-9 36-22l39 27c-20 29-38 42-77 42-55 0-91-45-91-103 0-56 32-102 92-102q47-1 75 43l-39 26q-11-21-36-22c-22 0-43 20-43 54 0 39 23 57 44 57m206-153h51v196h-51v-77h-60v77h-51V50h51v72h60z"/><path fill="currentColor" d="M149 0c81 0 148 67 148 149 0 81-67 148-148 148C67 297 0 230 0 149 0 67 67 0 149 0m0 283c73 0 134-61 134-134 0-74-61-135-135-135C75 14 14 75 14 149c0 73 61 134 134 134m61-227a111 111 0 0 1 0 185h-10v-51H98v51H87a111 111 0 0 1 0-185h11v51h102V56zm-10 120v-56H98v56zM83 221V76l-8 8a97 97 0 0 0 8 137m131 0 7-7a98 98 0 0 0-7-138z"/></svg>