<svg xmlns="http://www.w3.org/2000/svg" viewBox="0 0 355 222"><path fill="#ffac25" d="M140 117s2-10-5-11 7-3 14 0 18-1 21-7 11-6 15-8q9-2-4 7s-1 7-9 7c0 0 3 6-1 9-5 3 1 15-15 20 0 0-7 5-7-5-1-9-9-6-9-12m-34 6 5-3c4 0 10-1 9 3s-1 10-8 9c-8 0-6-9-6-9M67 89l-2-9-1-7q-1-7 7-4c7 2 2-3 6-3 5 1 6 11 4 12-3 1-4 8-4 10s-2 9-6 9q-4-1-4-8m125 65s-2-7 4-13c7-5 2-11 9-12 6 0 5 3 11 3 7 0 4 6 4 11s3 13-3 16-5 9-9 8-15-5-16-13m49-35s19-3 19-17 5 0 11-20c7-21 10-11 14-11 3 0 1 15 1 15s-3 4 0 6c2 2-5 16-15 17s-19 15-19 15-12 3-11-5m49-60s-9 3-6-4c4-7-2-10 7-12s16 1 16-4q1-6 3-7l2 1s5 0 1 8q-4 10-12 13l-9 4zM53 157s-6-5 0-5c5 0 4-7 11-6 6 1-3 6-3 12q1 8-8-1"/><path fill="none" stroke="#fcd78d" stroke-width="3" d="M15 15h324v191H15z"/></svg>