<svg xmlns="http://www.w3.org/2000/svg" viewBox="0 0 1109 844">
<path data-popover="clima-1" class="cursor-pointer" stroke="#fff" fill="#0082d2" d="m486 58-4 6-10 1-4 3-1 8v5h-8l-10-5-6 9-6 1-2-2 2 6-1 7-12 1-2 4 4 5 7-5 2 2-3 5 4 3-1 5h-9l-2 6-5-6-5 5-7-6-1-6-3-1-1-10h-8l-4-8-4-1-14 2-8 1-6-9-2 1 5-13 4-5 5 1 1-1-2-3 1-2h2l6-3-1-2 1-4 12-1 5 2 12-1 7-5 4 3 7-5 20-1 7-3 13 4 2 6 11-1 6 3z"/>
<path data-popover="clima-1" class="cursor-pointer" stroke="#fff" fill="#0082d2" d="M599 62v-7l-2-3-7-1-6 9-5-2-12 7-7-4-7 4-16-12-12 2-6-8-4 3h-14l-6 9-9-1-4 6-10 1-4 3-1 8v5h2l6-5h10l4 5 1 3-1 4 3 6h6v2l-1 2 2 2 3 1v4l-3 2-8-1-1-4-3-1-6 1-3 7 5 3 5-4 3 14 7-2 6 4 6 9v3l8 3 4-4 6 6-3 4 3 3h8l3-2 5 5h1l4-7-1-3v-4h-2l-1 1 1 2-1 1h-1v-3l-3-3 3-2v-2h2l2-1 1 2 2 2h2l-1-2 3-2-3-6 2-1h1l3-2-1-6 4-3 2-2-1-8h7l6-10v-3l5-3 4-6-2-2zm-60 71h-9l-3-5-4 4-5-1-5-6 1-6 5-3 5 4 2-2 4 1 1 2h2l2 4 4 2-1 3 2 1z"/>
<path data-popover="clima-1" class="cursor-pointer" stroke="#fff" fill="#0082d2" d="m377 57 1 2-6 3h-2l-1 2 2 3-1 1-5-1-4 5-5 13h-2l-1-2 1-7-1-6h-7l-3 7-8-1-2 8-5-2-4 4h-8l-3-4-3 7-7-1-1 3h-5l-1-2h-6l-1-2-7 3v5l-3 2-7-2-7-5v-5h-8l-2 5-9-3-8 1-3-3-7 6v6l-6 3-15-1-3 4-5-4 1-5-7-2-3-4-3 3-2-3 4-6 9-2 3-5-4-5-6 7h-2v-8l-8-3v-7l-5-3-1-10 9-8 1-6 2-2h14l8 3 7-3 7 4 8-3 5 3 12-4 7 3h9l7-4 7-6 6 5 4 6 6 2 14-2 13 2 4 7h6l6 3h12l12 5h12l5 2z"/>
<path data-popover="clima-1" class="cursor-pointer" stroke="#fff" fill="#0082d2" d="m203 161-1 8-4 5-5-1-6 7-8 8 5 4-3 8-5 1-4-2-7-1v10h-4l-5 5-6-1-6 2v-4l-2-1-3 3h-8l1-5-9-3-9 4h-4v-4l-3-2-2 2v2l-2 1-1-1-1 4-7 3-6-1-1-7-2-5 3-4 7-3 1-4v-5l-6 1-3-2v-7h-7l-3 5-7 2-5-2-5 4h-9v4l-4 2-4 4-6 3-3 4-2-5v-20l5 1 1-2-2-5 16-9-5-4-5 4-5-2v-5l15-9-2-4-11 6h-2l-2-6-6-3 4-4 1-5h2l-1 4 2 2 5-1-2-4 4-5v-5l-5-1-3 2-1 5-3 1v-1l-7 6-4-8 4-12 4-1 3-5h5l1-5-3-2-3 4-6 1-3 6-5-6 1-5h-2v-3l3-3-3-4h-7l-1 4-4-5 7-7-4-7 5-4 3 3 5-5-2-3-3 4-1-1v-3l3-6h4l5 3 4-6 6 2v-1l-3-6h4l3-3h3l2-2 3 4 9 1 4-2 6 2 7-7 9 3 1-5h5v5l4 4v-8l2-3-1-1-3 1-7-6v-9l9-1 2-5 8-3 3-6h6l4-5h4l1 5-3 2 1 3 6-2 1-4 8-5 2 1-1 2v2h3l3 3 10-1 9 5v5l8 8h14l2 2-1 6-9 8 1 10 5 3v7l8 3v8h2l6-7 4 5-3 5-9 2-4 6 2 3 3-3 3 4 7 1-1 6-4 6 1 5-6 7h-5l-5 6 5 4-7 5 3 3-4 6 7 5 4-6 8 5 3 6-3 2 2 7z"/>
<path data-popover="clima-1" class="cursor-pointer" stroke="#fff" fill="#0082d2" d="m540 131-1 2h-9l-3-5-4 4-5-1-5-6 1-6 5-3 5 4 2-2 4 1 1 2h2l2 4 4 2-1 3z"/>
<path data-popover="clima-2" class="cursor-pointer" stroke="#fff" fill="#00aae1" d="m366 502-4 2-3-4-6-1-7 9 3 6-3 3-7-2 1 8 8 2v8l-7-1-5 15-4 1-2-1-10 2v6l-11 5v6h-7l-3 6-8 6h-6l-2 9 8 14-2 7-16 9-4-5 6-5-2-4-12 2-2 6-4 2 2 4-6 4-1 6-5-2-12 6-11-6-3-6-6-1-3 4-10-1-1-5-7-5h-11l2-4-13-6-1-3-9 3-8-12-6-2-8-15 7-15-3-5 3-8 11-5 6-7 4-1-1-10 8-9-7-8-4 2-4-2v-8h-8l-3-5 4-6-7-5-1-6 3-6-3-5h-4l-2-5-6-5-3-11 17 5 5-4 9 4 4-4 8 1 3-17 6-2 3-19-5-9h-3l-4-7 2-7h9l3-3 3 4h5l3-2h1l3 3 8-4 1-6 6-4 4 1 2-3 5-1 2-6 6 1 3-4 8 4 4 7 1 4-1 2h4l3 6h5l6-7h5l-1 7h7l9 9h9l4-5h5l1-2 2-2v5l-1 2 1 2-2 5 2 2 1 3-5 2 2 14-4 6 10 5-4 6 7 4 5-5 3 3-2 6 4 2-6 15 11 11 15 12 13-9h4l1 5-6 10 2 9z"/>
<path data-popover="clima-2" class="cursor-pointer" stroke="#fff" fill="#00aae1" d="m797 152 1 11-3 11-1 19-7 5 1 10-8 7-2 2 1 2-1 2-4-1-8 10 5 9h2l2-2h2l-1 2-1 4-6 4 2 5-2 9 6 10-7 8v5l-6 4-2 6 6 4 3 7-6 8 4 4-1 7-6 4-2 3h-5l-4 4-1-3-14-3v-8l-7 7-1 7-5 5-5-4-2 8 8 2v8l-4 7 7 8-11 9 3 4-6 4h-9l-3 11-2 2 2 3v2h-7l-10 7-3 8 4 4-7 4-5-4 3-7-10-3-6 4-3-1 1-4-3-1 7-4-2-3-1-4-5 1-7-3-2-9h-2l-3 9-8-1-1-4-5-3-3 2-10-12-5 1h-1l2-4-8-8 4-6 5-3-1-7 1-4 7 3 4-4v-4l2-4-3-7 3-6-6-7v-9l-8-5-7-9-8-5-3 1-3-4-9 1-2-3h-4l-3-10 4-11h8l7-10h-3l-4-12 8-1 3-5 6-3 3-7-7-8 3-4-2-4h6l4-7h8l3 6 3-1 5 2 5-4 3-7 4-4-1-2 1-3-1-2-2 2h-2l-1-5v-8l-3-1 1-6 7-11-4-5 8-7-3-3 3-8 6-2 3-5h8v-5l1-1h3l4-1 1-4 8-2-3-6 3-9 6-2 5 7 5-1v5l5 3 5-5 6 3 7-6 9 7 6-1 2 3-1 2 4 1 5 5 6-4 11-4 9 6 5-5 4 5 5-2h14l3 10h1l4-1v7l-6 8z"/>
<path data-popover="clima-2" class="cursor-pointer" stroke="#fff" fill="#00aae1" d="m672 103-3 9 3 7-8 1-1 4-4 1h-3l-1 1v5h-8l-3 5-6 2-3 8 3 3-8 7 4 5-7 11-1 6 3 1v8l1 5h2l2-2 1 2-1 3 1 2-4 4-3 7-5 4-5-2-3 1-3-6h-8l-5-5-7 1-6-7 6-7 12 1v-9l-10-6h-5l-5-9-4-1-2-2h-6l-1-8-8 4-5-6-9 2-4-2 4-7-1-3v-4h-2l-1 1 1 2-1 1h-1v-3l-3-3 3-2v-2h2l2-1 1 2 2 2h2l-1-2 3-3-3-5 2-1h1l3-2-1-6 4-3 2-2-1-8h7l6-10v-3l5-3 4-6-2-2 17-16 3 3 8 3 4-5 10 3 3 5-6 15 5 1 5-5 18 9v2l7-1 3 5 9-1 2 3 4-4h4v6z"/>
<path data-popover="clima-2" class="cursor-pointer" stroke="#fff" fill="#00aae1" d="M600 212h-6l2 4-3 4 7 8-3 7-6 3-3 5-8 1 4 12h3l-7 10h-8l-4 12 3 9h4l2 3 1 8-2 1-5-5-4 5-5-3-1 3-7 2-1-4-6 3-6-8h-5l2-5-12-8-11 3-6-9-5 5-10 1-8-5-6 6-14 5-6 8h-8l-4 7-4 1-5 8h-3l-7 4-5 9v4l-7 5-3 1-7 8-1 8-5 2-3-2h-1l-1 4-3 5 2 11-9 4-5 9-5 1-4 4 1 2-1 2h1l-3 3-7-1-1-2 1-2-1-3h-9l-1 6-3 2h-3l-2 1v3l-1 3-7 2v-4h-2v-3l-3 3-7 7-5-5-6 4-4-3-1-3-2-2 2-5-1-2 1-2v-5l-2 2-1 2h-5l-4 5h-9l-8-9h-8l1-7h-5l-6 7h-5l-2-6h-5l1-2-1-4-4-7-8-4-3 4-6-1-2 7h-5l-2 3-4-1-6 4-1 6-8 4-3-3h-1l-3 2h-5l-3-4 5-5 1-4-5-7 5-7-4-8 6-9-5-8 4-12-4-3v-5l-6-12 8 1 6-4-1-7 14-13h7l12-11 6-1 1-12 8-6 1-4-11-11-8-1-5 5-7-7v-6l4-7-4-5 3-6-4-4-10 4-5-6-7 5-5-5-4 1 3-8-5-4 8-8 6-7 6 1 3-5 1-8-5-1-2-6 3-3-3-6-8-4-4 5-7-5 4-6-2-3 6-5-5-4 5-5h5l6-8-1-5 4-6 5 4 3-4 15 1 6-3v-6l7-6 4 3 7-1 9 3 2-5h8v5l7 5 7 2 3-2v-5l7-3 1 2h6l1 2h5l1-3 8 1 2-7 3 4h8l4-4 5 2 2-8 8 1 3-7h7l1 6-1 7 1 2h2l2-1 6 9 8-1 14-2 4 1 4 8h8l1 10 3 1 1 6 7 6 5-5 5 6 2-6h9l2-5-5-3 3-5-2-2-7 5-4-5 2-5h12l1-7-2-6 2 2 6-1 6-9 10 5h10l6-5h10l4 5 2 3-2 4 3 6h6v2l-1 1 2 3 3 1v4l-3 2-8-1-1-4-3-1h-6l-3 8 6 3 4-4 3 14 7-2 6 4 6 9v3h-2l-2-1h-1l-8-1v2l1 1-1 2-2 2-3 3 2 1 2-1 1 1-1 2 1 4 2 2-1 2v7l-5 4 3 9-3 7 7 10h8l1 2-2 4 5 4 7-7-2-6 6-3 3 5-4 8 7 1 4 2 6-6v-7l9-3h7l4 4 9-3 2 4-1 5 3 2-1 7 9 3h9l3-7 8-1 4 5z"/>
<path data-popover="clima-2" class="cursor-pointer" stroke="#fff" fill="#00aae1" d="m677 549-2 6-5 2-5-6-5 1-1-1 1-4-4-3-9 2-5 9-4-6-4 4v7l-4 5 1 20h-5l-4 8h-6l-3-2v-6l-10 2-9 9-8 1-4-4-4 9h-4l-6 4 1 7-11 8v2l-7 1-4-5h-5l-1-4 9-9v-4l3-3-2-3h-5v-12h-7v-9l-4-5-8 5-4-5-9 9-6-3-5 7-5-6-1-1-5 6-3-4h-6l-3 2-2-4h-6v7l-11 2-4-6-1 2-1-3-1 8-13-5-8 2-2 6h-5l-3 1-8-4-19-1-5 5-6-6h-6l-5-9h-4l-3 1v-6l-5-2-2 1v-3l-13-2-1-9-2-3-9 1-3-5 4-1 5-15 7 1v-8l-8-2-1-8 7 2 3-3-3-6 7-9 6 1 3 4 4-2-7-5-2-9 6-10-1-5h-4l-13 9-15-11-11-12 6-15-3-2 1-5-3-3-5 4-7-4 4-6-10-5 4-6-2-14 5-2 4 3 6-4 5 5 7-7 3-3v3h2v4l7-2 1-3v-3l2-1h3l3-2 1-6h9l1 3-1 2 1 2 7 1h4l2 1 2-5 6 1 6-8 2 6 1 3 4 1v-3l7-5 3 4 6-1 6 6h17l2 4 8 1 7 5-5 10-4 1-1 4h-7l-6 4 6 6 10-9 9-2 10 1 9-1 2-6 6-1 6-5 5 4 6-4-5-6 2-11-4-3-6 4-1-5 6-5 2-6-9-10-1-6h-2l-1 1-6-6v-6l-8-8-1-6-3-1v-5l2-2v-6l3-3 2-9-3-3 1-5h-4l-3-5 6-8 14-5 6-6 8 5 10-1 5-5 7 9 10-3 12 8-2 5h5l6 8 6-3 1 4 7-2 1-3 5 3 4-5 5 5 2-1-1-8 9-1 3 4 3-1 8 5 7 9 8 5v9l6 7-3 6 3 7-2 4v5l-4 3-7-3-1 5 1 6-5 3-4 7 8 7-2 4 1 1 5-2 10 12 3-2 5 3 1 4v1l1 6 6 7 6-1 3 3 7-2 2 3-1 2-4 2 1 13-7 8 1 6-4 3-4-3-10 14-2 12 14 11 13 1 3 3v12l-8 8-1 9 14 10 9 1 4-2 3 13-1 6zm-73-370v9l-12-1-6 7 6 7-3 7h-9l-9-3 1-7-4-2 2-5-3-4-8 4-4-5h-7l-9 3v7l-6 6-4-2-7-1 4-8-3-5-6 3 1 6-7 7-4-4 1-4v-2h-8l-7-10 3-7-3-9 5-4-1-7 1-2-1-2-1-4 1-2-1-1-2 1-2-1 3-3 2-2 1-2h-1v-3l7 1h2l2 2 2-1 8 3 4-4 6 6-3 4 3 3h8l3-2 4 5h2l4 2 9-2 5 6 8-4 1 8h6l2 2 4 1 4 9h6z"/>
<path data-popover="clima-2" class="cursor-pointer" stroke="#fff" fill="#00aae1" d="m499 405-6 4-5-4-6 5-6 1-2 6-9 1-10-1-9 2-10 9-6-6 6-4h7l1-4 4-1 5-10-7-5-8-1-2-4h-17l-6-6-6 1-3-4-7 5v3l-4-1-1-3-2-6-6 8-6-1-2 5-2-1h-4l2-3 1-2-1-2 4-4 5-1 5-9 8-4-1-11 3-5 1-4h1l3 2 5-2 1-8 7-8 3-1 7-5v-4l5-9 7-4h3l5-8 4-1 4-7h7l4 5h3v5l3 3-2 9-3 3v6l-2 2v5l3 1 1 6 8 8v5l6 7v-1h3l1 6 8 10-1 6-6 5 1 5 6-4 4 3-2 11z"/>
<path data-popover="clima-3" class="cursor-pointer" stroke="#fff" fill="#8cd26e" d="m620 692-2 1-2 4-1 4-8 6-1 7-5 1 4 3-7 22-5 1 1 2-3 2-1 3-1 6-5 1-7 9h-4l-5-7-6-5-14-1h-3l-7 6v6l-3 2-10 3-4-3-2 3-5-6-7 1-5-2-4 2h-20l-13 7-8-7h-13l-2 1-5-2-9-1-6 4-8-4-6 4h-13l-13-1-4 4-6 11h-7l-1 6-9 4-15-3-8 5h-7l-5 5-7 1-2 2-1 6-6 5-1 5-4 6-5-1-3 5 2 2v6h-5l-10 6-6-6h-5l-17-16-3 3-3-3-5 3-2-9-2-4h-3l-1-4v-4l-1-3-3 1-5-8v-4l2-5-4-8h-6l-6-14 6-3-5-11v-6l-5-5-6-4-9-6-16-9-3-3-3 1-10-6h-23l-6 5-2-9-3-6-1-2 3-3-3-7 1-10-5-6 7-10 1-13 10-4 3-13 7-6 5 2 6-7 4 3 4-2 1-9 4-8 13 6-2 4h11l8 5v5l10 1 3-4 6 1 3 6 11 6 12-6 5 2 1-6 6-4-2-4 5-2 1-6 12-2 2 4-6 5 4 5 16-9 2-7-8-14 2-9h6l8-6 3-6h7v-6l11-5v-6l10-2 2 1 3 5 9-1 2 3 1 9 13 2v3l2-1 4 2 1 6 3-1 4 1 5 8h6l6 6 5-5 19 1 8 4 3-1h5l2-6 8-2 13 5 1-8 1 3 1-2 4 7 11-3v-7h6l2 4 3-2h6l3 4 5-6 1 1 5 6 5-7 6 3 9-9 4 5 8-4 4 4v9h7v12h5l2 3-4 3 1 4-9 10 1 3h5l4 5h7l3 2 5 9 14 5h12l-5 6v16l-1 3 5 4 10 16 9-1z"/>
<path data-popover="clima-3" class="cursor-pointer" stroke="#fff" fill="#8cd26e" d="m699 666-3 4h-6l-8 4-8-4-8 2-1 2-1 2h-4l-2-4-13 2-4 5-4-1-5 4 1 6-6-1-7 5-10-8-9 1-10-16-5-4 1-3v-16l5-6h-12l-14-5-5-9-3-3v-2l11-8-1-7 6-4h4l4-9 4 4 8-1 9-9 10-2v6l3 2h6l4-8h5l-1-20 4-5v-7l4-4 4 6 5-9 9-2 4 3-1 4 1 1 5-1 4 6 2 4-3 12-5 4 1 11 7 1 3 3v6l-4 8-2 8 6 6 1 4 11 14 7 2v3l-3 3v4l-4 3 8 10h4z"/>
<path data-popover="clima-3" class="cursor-pointer" stroke="#fff" fill="#8cd26e" d="M786 355v1l-5 7v7l-7 10-10 7-2 12-8 4-5 11-2 6-8 9-7 18-6 7-2 18-3 5v8h3l-1-7 2-1 1 2v6l5 3 1 5 2 2-2 6 7 16 5 1 6 11 11 4h8l1 1v2l1 4 2 2-5 3-1 4-2-1-3 1v5h-5l-7 5 2 7-21 4-13 13-1 4-3 2-2-2-2 3 5 11-3 3h-4l-9 7 3 13-6 7-3 8v1l-7-2-11-14-1-4-6-6 2-8 4-8v-6l-3-3-7-1-1-11 5-4 3-12-2-4 6-3 2-5-3-6 2-6-3-13-4 1h-9l-14-10 1-9 8-8v-12l-3-3-13-1-14-11 2-12 10-14 4 3 4-3-1-6 7-8-1-13 4-2 1-3-2-2-7 1-3-2-6 1-6-7-1-6v-1l8 1 3-9h2l2 9 7 3 5-1 1 4 2 3-7 4 3 1-1 4 3 1 6-4 10 3-3 7 5 4 7-4-4-4 3-8 10-7h7v-2l-2-3 2-2 3-11h8l7-4-3-4 11-9-7-8 4-7v-8l-8-2 2-8 5 4 5-5 1-7 6-7 1 8 13 3 2 3 4-4h6l6 1 3 4-2 4h3l5 4 4-2 5 7 3 2-1 4z"/>
<path data-popover="clima-3" class="cursor-pointer" stroke="#fff" fill="#8cd26e" d="m988 154-4 7 3 9h4l3 4-1 5 3 5-3 11-7 3-2 7-13 8-7 9-22 9-10 10-8 3-5 4-4 8v4l-9 6-8 1-10 4-7 3-7 2-9 1-12 7-8 1-8 6-11 1-8 9-4 4-3 6-6 4-4 6 6 4-2-3 1-2 4 1v3l5 5 4-1-2 5-9 3-2 5-1 3-9 4-1-3 7-3h2l1-2-4-1-7 2-7 10-1 4h-1l1-3-3-3-5-6-4 1-5-4h-2l1-4-3-4-6-1h-1l2-3 6-4 1-7-4-4 6-8-3-7-5-4 1-6 6-4v-5l7-7-6-11 2-9-2-5 6-4 1-4 1-2h-2l-2 2h-2l-5-9 8-10 4 1 1-2-1-1 2-3 8-7-1-10 7-5 1-19 3-11-1-11-5-8 6-8v-7l-4 2-1-1-3-10-3-4v-6l1-7h8l5 4 4-1 3 2 18 5v5l14-3 10 11-1 7 4 3-3 3 3 5 5 1 3-3 11-4h8l10 4 1 4 3 5h6l2-5 7-1 7-4 9 4 4 2 8 4 3-3h4l3 1v-6l3-3h6l4-3 7-2h10l3 4 2-2 6-1v4l-1 2 2 4 4-2 3 3 5-1-3 9-5 3-5-3zM875 535l-1 2 1 2 1-1 3 2-2 1 3 1 1 3 1-2 3-3 1 1v2h1v2h-2v3l-3-1h-2l-1-2-4-3-1 1v1l-2 3-1 2h-1v-3l-3-4 5-5v-3h2zm-4-13v6h-3l-2 1-1-4-1-1-1 1-3-2h-2v2h1l-2 2-2-3h-1l-1-2 2-3v-5h6l1-2-3-2 1-3v-1l2-1 2-3 1-2 3 1 4-1 3-2h9v1h2l-2 2v1h3v1l-3 1v3l-1 1v1h3l-1 2h-2l-1-1h-2v5l-8 5zm126-34v-4h1v-2h-2l-1 2-3 3v1l2-1 3 2zm9-15-5-1-4-4-1-5-12 1-7-3v-5l-2-3v-5l-5-3-9 4-2 7-7-7-4 1-7-8 14-12 6-3 2-4 8-5v-4l4-4h7l9-8 4 1 5-3h2l8-4 1 4-11 6 2 2 8-2 1 4-7 1v4l6 6 8 1 6-6 9 3 2 10-8 3 3 5-9 10-3 15-8 5zm67-78-5 3h-7l1-6-5-4 5-5h16l3-5 2 1-1 1 2 3 1-1v-2l2-1 2 1-1 3 1 2 1-1 7 4-1 6 7 4-3 4-1 6-9-2-9-9z"/>
</svg>
